<?xml version="1.0" encoding="utf-8"?>
<svg viewBox="0 0 100 35.2" xmlns="http://www.w3.org/2000/svg">
  <defs>
    <style>.cls-1,.cls-2{fill:#fff;}.cls-1{opacity:0;}</style>
  </defs>
  <path class="cls-2" d="M 42.6 0 L 42.6 5.8 L 14.3 5.8 C 9.385 5.8 5.4 9.785 5.4 14.7 L 42.6 14.7 L 42.6 20.4 L 5.4 20.4 L 5.4 29.7 L 42.6 29.7 L 42.6 35.2 L 0 35.2 L 0 15.1 C 0.055 6.783 6.783 0.055 15.1 0 Z" style=""/>
  <path class="cls-2" d="M 63.8 14.7 L 63.8 14.7 C 63.8 9.785 67.785 5.8 72.7 5.8 L 100 5.8 L 100 0 L 73.6 0 C 65.244 0 58.455 6.744 58.4 15.1 L 58.4 20.4 L 94.6 20.4 C 94.6 25.315 90.615 29.3 85.7 29.3 L 58.4 29.3 L 58.4 35.1 L 84.9 35.1 C 93.178 35.046 99.891 28.378 100 20.1 L 100 14.8 Z" style=""/>
  <rect class="cls-2" x="47.5" width="5.4" height="35.19" style=""/>
</svg>