<?xml version="1.0" encoding="utf-8"?>
<svg viewBox="0 0 275 120" preserveAspectRatio="xMinYMin" xmlns="http://www.w3.org/2000/svg">
  <defs>
    <style>.cls-1{fill:#fff;opacity:0;}.cls-2,.cls-3{fill:#e98923;}.cls-2{fill-rule:evenodd;}.cls-4{fill:#009588;}</style>
  </defs>
  <g>
    <rect class="cls-1" width="275" height="120" style=""/>
    <path class="cls-3" d="M 164.6 11.1 C 160.649 11.1 157.026 13.297 155.2 16.8 L 147.2 31.8 L 184.2 31.8 L 187.2 11.1 Z" style="fill: rgb(255, 255, 255);"/>
    <path class="cls-4" d="M 114.7 19.2 C 113.474 14.452 109.204 11.126 104.3 11.1 L 12.2 11.1 L 10.9 20.2 C 10.051 26.33 14.811 31.798 21 31.8 L 42.3 31.8 L 31.6 107.6 L 46 107.6 C 49.617 107.635 52.698 104.982 53.2 101.4 L 63 31.8 L 117.8 31.8 Z" style="fill: rgb(255, 255, 255);"/>
    <path class="cls-3" d="M 222.6 11.1 C 206.733 11.1 196.733 18 192.6 31.8 L 252.2 31.8 C 257.307 31.842 261.643 28.065 262.3 23 L 263.9 11.1 Z" style="fill: rgb(255, 255, 255);"/>
    <path class="cls-4" d="M 231 49 L 217.2 49 C 213.2 49 211.2 47.3 211.2 43.8 C 211.186 43.232 211.22 42.663 211.3 42.1 L 211.6 40.4 L 190.9 40.4 L 190.6 42.1 C 190.326 44.256 190.193 46.427 190.2 48.6 C 190.2 62.7 198.2 69.7 214.3 69.7 L 228.1 69.7 C 232.1 69.7 234.2 71.5 234.2 75 C 234.182 75.538 234.115 76.074 234 76.6 L 233.5 80.1 C 232.9 84.7 230.3 87 225.7 87 L 176.5 87 L 183 40.4 L 142.7 40.4 L 127.2 69.7 L 119.9 40.4 L 79.6 40.4 L 70.1 107.6 L 90.8 107.6 L 99 49 L 111.6 102 C 112.345 105.269 115.247 107.591 118.6 107.6 L 126.4 107.6 C 129.102 107.624 131.582 106.112 132.8 103.7 L 161.1 49 L 152.9 107.6 L 222.8 107.6 C 241.2 107.6 251.7 98.5 254.2 80.1 L 254.7 76.6 C 255.004 74.513 255.171 72.409 255.2 70.3 C 255.2 56.1 247.1 49 231 49 Z" style="fill: rgb(255, 255, 255);"/>
  </g>
</svg>