<svg xmlns="http://www.w3.org/2000/svg" viewBox="0 0 183.3 100"><defs><style>.cls-1{fill:#fff;opacity:0;}.cls-2,.cls-3{fill:#e98923;}.cls-2{fill-rule:evenodd;}.cls-4{fill:#009588;}</style></defs><g id="Layer_2" data-name="Layer 2"><g id="Layer_1-2" data-name="Layer 1"><rect class="cls-1" width="183.3" height="100"/><path class="cls-2" d="M19.5,80.5,15.6,93H7.7l3-9.5h3.7v-.3H10.7a5.1,5.1,0,0,1-3.1-1.1,4,4,0,0,1-1.2-1.6ZM37,86c-.2-1.8-1.8-2.6-4.9-2.6l-10.2.3-3,9.3h6.6l.3-.9c1.1-2.9,2.1-4.7,2.9-5.3a3.2,3.2,0,0,1,2-.6c-.2.7-.5,1.3-.6,1.8l-1.6,5h6.6l1.6-5a3.8,3.8,0,0,0,.3-2Zm18.2,2.7a4.6,4.6,0,0,1-2.6,3.1,12.1,12.1,0,0,1-6.4,1.5H45.1a10.2,10.2,0,0,1-4.4-.9c-1.7-.7-2.6-1.7-2.8-3.1a2.7,2.7,0,0,1,.2-1.3,5.4,5.4,0,0,1,3.6-3.6,14.4,14.4,0,0,1,5.3-.9h1.1a13.7,13.7,0,0,1,4.4.9c1.7.8,2.6,1.8,2.8,3.3a4.5,4.5,0,0,1-.1,1.1ZM48.6,88a4,4,0,0,0,0-1.1c-.1-.7-.5-1.1-1.5-1.1s-2,.8-2.3,2.5a3.4,3.4,0,0,0-.2,1.3,1.3,1.3,0,0,0,1.5,1.3c1.3,0,2.1-1,2.5-2.9Zm26-4.3L65.8,93H59l-3.2-9.3h6.5l1,5.8,4.5-5.8Zm17.4,0c-2.6-.2-6.1-.3-10.6-.3a9.9,9.9,0,0,0-5.2,1.4,4.9,4.9,0,0,0-2.7,4.4v.6a3.3,3.3,0,0,0,1.6,2.6,5.6,5.6,0,0,0,3,.8,6.4,6.4,0,0,0,5.3-2.6L82.7,93H89l3-9.3Zm-7.2,2.1-.5,1.1a10.1,10.1,0,0,1-1.2,2.3A2.8,2.8,0,0,1,81,90.5c-.5,0-.8-.3-.8-1.1a4.9,4.9,0,0,1,.6-2,2.5,2.5,0,0,1,2.4-1.6Zm26.7-5.3-2.6,3h-3.5L102.5,93H94.6l2.9-9.5H101v-.3H96.7a5.2,5.2,0,0,1-3.2-1.1,7.4,7.4,0,0,1-1.2-1.6ZM122,86.6l-.3-2.6c0-.4-1-.6-2.9-.6l-9,.3L106.9,93h6.5l.4-.9a18.4,18.4,0,0,1,1.6-3.4c1.1-1.8,2.5-2.7,4-2.7a4.1,4.1,0,0,1,2.6.6Zm18.1-2.9L137.2,93h-6.4l.8-2.4a6.4,6.4,0,0,1-5.3,2.6,5.6,5.6,0,0,1-3-.8,3.1,3.1,0,0,1-1.6-2.6v-.6a4.9,4.9,0,0,1,2.7-4.4,9.9,9.9,0,0,1,5.2-1.4q6.8,0,10.5.3ZM133,85.8h-1.6a2.5,2.5,0,0,0-2.4,1.6,4.9,4.9,0,0,0-.6,2c0,.8.3,1.1.8,1.1a2.8,2.8,0,0,0,2.1-1.3,10.1,10.1,0,0,0,1.2-2.3l.5-1.1Zm20.9.8a4.8,4.8,0,0,0-2.9-.7,4.9,4.9,0,0,0-3.5,1,2.4,2.4,0,0,0-.7,1.8v.4c.1.8.7,1.3,1.8,1.3a11.9,11.9,0,0,0,4.9-1l-1.1,2.9q0,.2-.6.3a10.7,10.7,0,0,1-4.1.6,11.4,11.4,0,0,1-4.8-.9q-2.6-1-2.7-3v-.5a4.4,4.4,0,0,1,2.1-3.6,12.8,12.8,0,0,1,7.2-1.8,13.7,13.7,0,0,1,4.1.5l.3,2.7Zm20-2.9-.6,2.3h-1a5,5,0,0,0-2.9.7l-1.9,1.2,3.4,5.2h-7l-1.8-4.6L160.6,93h-6.5L158,80.4h6.6L162.5,87a5.5,5.5,0,0,1,1.6-1.8,11.1,11.1,0,0,1,6.7-1.8A13,13,0,0,1,173.9,83.7Z"/><path class="cls-3" d="M109.8,7.4a7.1,7.1,0,0,0-6.3,3.8l-5.3,10h24.6l2-13.8Z"/><path class="cls-4" d="M76.5,12.8a7.2,7.2,0,0,0-7-5.4H8.1l-.8,6.1A6.7,6.7,0,0,0,14,21.2H28.2L21.1,71.8h9.6a4.9,4.9,0,0,0,4.8-4.2L42,21.2H78.5Z"/><path class="cls-3" d="M148.4,7.4c-10.6,0-17.3,4.6-20,13.8h39.7a6.9,6.9,0,0,0,6.8-5.8l1.1-8Z"/><path class="cls-4" d="M154,32.7h-9.2c-2.7,0-4-1.2-4-3.5a4.5,4.5,0,0,1,.1-1.1l.2-1.2H127.3l-.2,1.2a33.4,33.4,0,0,0-.3,4.3c0,9.4,5.3,14.1,16.1,14.1h9.2c2.7,0,4,1.2,4,3.5a4.1,4.1,0,0,1-.1,1.1l-.3,2.3c-.4,3-2.2,4.6-5.2,4.6H117.7L122,26.9H95.1L84.8,46.5,79.9,26.9H53.1L46.8,71.8H60.5L66,32.7,74.4,68a4.8,4.8,0,0,0,4.7,3.8h5.2a4.8,4.8,0,0,0,4.3-2.7l18.8-36.4-5.5,39.1h46.6c12.3,0,19.3-6.2,21-18.4l.3-2.3a31.9,31.9,0,0,0,.3-4.2C170.1,37.4,164.7,32.7,154,32.7Z"/></g></g></svg>